{"title":"Playboy Playmate of the Year 2000 Bonus: Brooke Richards","uid":6181723,"size":415928324,"categoryP":"video","categoryS":"movies","magnet":"?xt=urn:btih:e7eb04a162c71dacd5d8abacaef439cd22d63c5d&amp;dn=Playboy+Playmate+of+the+Year+2000+Bonus%3A+Brooke+Richards&amp;tr=udp%3A%2F%2Ftracker.openbittorrent.com%3A80&amp;tr=udp%3A%2F%2Fopen.demonii.com%3A1337&amp;tr=udp%3A%2F%2Ftracker.coppersurfer.tk%3A6969&amp;tr=udp%3A%2F%2Fexodus.desync.com%3A6969","seeders":1,"leechers":1,"uploader":"light88","files":1,"time":1297976830,"description":"PLAYBOY PLAYMATE OF THE YEAR 2000 BONUS: BROOKE RICHARDS\n &lt;a href=&quot;\nhttp://leetleech.org/images/69557149694295319566.jpg&quot; rel=&quot;nofollow&quot; target=&quot;_NEW&quot;&gt;\nhttp://leetleech.org/images/69557149694295319566.jpg&lt;/a&gt;\n\nDetails\n\nTitle: Playboy Playmate Of The Year\nCountry: USA\nYear: 1999\nGenre: Erotic, Softcore\nRelease Date: 19 September 2000\nCast: Brooke Richards\n\nPlot\n\nBrooke Richards, Miss Dec 1999: If you missed this Carolina cutie in Playboy's Sexy Girls Next Door and Girlfriends Newsstand Specials, they you're overdue for an introduction. This brown-eyed bombshell is packing an abundance of ambition and beauty and we're sure you'll enjoy every moment of this intimate video close-up.\n\nMediainfo\n\nGeneral\nComplete name                    : Playboy - Playmate Of The Year 2000 Playmate Bonus - Brooke Richards.mpg\nFormat                           : MPEG-PS\nFile size                        : 397 MiB\nDuration                         : 15mn 27s\nOverall bit rate                 : 3 586 Kbps\nWriting library                  : encoded by TMPGEnc b12j\n\nVideo\nID                               : 224 (0xE0)\nFormat                           : MPEG Video\nFormat version                   : Version 1\nFormat settings, BVOP            : Yes\nFormat settings, Matrix          : Default\nDuration                         : 15mn 27s\nBit rate mode                    : Variable\nBit rate                         : 3 323 Kbps\nWidth                            : 704 pixels\nHeight                           : 480 pixels\nDisplay aspect ratio             : 4:3\nFrame rate                       : 29.970 fps\nStandard                         : NTSC\nColor space                      : YUV\nBit depth                        : 8 bits\nScan type                        : Progressive\nCompression mode                 : Lossy\nBits/(Pixel*Frame)               : 0.328\nStream size                      : 368 MiB (93%)\nWriting library                  : TMPGEnc b12j\n\nAudio\nID                               : 192 (0xC0)\nFormat                           : MPEG Audio\nFormat version                   : Version 1\nFormat profile                   : Layer 2\nDuration                         : 15mn 27s\nBit rate mode                    : Constant\nBit rate                         : 192 Kbps\nChannel(s)                       : 2 channels\nSampling rate                    : 48.0 KHz\nCompression mode                 : Lossy\nStream size                      : 21.2 MiB (5%)[/i]\n\nScreenshots\n &lt;a href=&quot;\nhttp://leetleech.org/images/41717455002796768959.png&quot; rel=&quot;nofollow&quot; target=&quot;_NEW&quot;&gt;\nhttp://leetleech.org/images/41717455002796768959.png&lt;/a&gt; &lt;a href=&quot;\nhttp://leetleech.org/images/85191689428524392627.png&quot; rel=&quot;nofollow&quot; target=&quot;_NEW&quot;&gt;\nhttp://leetleech.org/images/85191689428524392627.png&lt;/a&gt;","torrent":{"xt":"urn:btih:e7eb04a162c71dacd5d8abacaef439cd22d63c5d","amp;dn":"Playboy+Playmate+of+the+Year+2000+Bonus%3A+Brooke+Richards","amp;tr":["udp%3A%2F%2Ftracker.openbittorrent.com%3A80","udp%3A%2F%2Fopen.demonii.com%3A1337","udp%3A%2F%2Ftracker.coppersurfer.tk%3A6969","udp%3A%2F%2Fexodus.desync.com%3A6969"],"infoHash":"e7eb04a162c71dacd5d8abacaef439cd22d63c5d","infoHashBuffer":{"type":"Buffer","data":[231,235,4,161,98,199,29,172,213,216,171,172,174,244,57,205,34,214,60,93]},"announce":[],"urlList":[]}}